{
	"asset":{
		"generator":"Khronos glTF Blender I/O v4.1.63",
		"version":"2.0"
	},
	"scene":0,
	"scenes":[
		{
			"extras":{
				"skinify":{
					"connect_mesh":0,
					"connect_parents":0,
					"generate_all":0,
					"thickness":0.800000011920929,
					"finger_thickness":0.25,
					"apply_mod":1,
					"parent_armature":1,
					"sub_level":1
				},
				"RBTab_Settings":{}
			},
			"name":"Scene",
			"nodes":[
				0,
				1,
				2,
				3,
				4,
				6,
				8,
				11
			]
		}
	],
	"nodes":[
		{
			"extras":{
				"ant_landscape":{},
				"gltf_primitive_index":2
			},
			"mesh":0,
			"name":"wheel_front_right",
			"translation":[
				-0.6384225487709045,
				0.2928940951824188,
				1.2603940963745117
			]
		},
		{
			"extras":{
				"ant_landscape":{},
				"gltf_primitive_index":3
			},
			"mesh":1,
			"name":"wheel_front_left",
			"translation":[
				0.7075686454772949,
				0.29289406538009644,
				1.2603939771652222
			]
		},
		{
			"extras":{
				"ant_landscape":{},
				"gltf_primitive_index":4
			},
			"mesh":2,
			"name":"wheel_back_right",
			"translation":[
				-0.6384226083755493,
				0.2928940951824188,
				-1.1937828063964844
			]
		},
		{
			"extras":{
				"ant_landscape":{},
				"gltf_primitive_index":5
			},
			"mesh":3,
			"name":"wheel_back_left",
			"translation":[
				0.7075686454772949,
				0.29289406538009644,
				-1.1937826871871948
			]
		},
		{
			"extras":{
				"ant_landscape":{},
				"gltf_primitive_index":6
			},
			"mesh":4,
			"name":"interior",
			"translation":[
				0.427177757024765,
				0.6375842094421387,
				-0.3924334645271301
			]
		},
		{
			"extras":{
				"ant_landscape":{},
				"gltf_primitive_index":7
			},
			"mesh":5,
			"name":"door_window_right",
			"translation":[
				-0.4599097967147827,
				-0.19971537590026855,
				0.2859798073768616
			]
		},
		{
			"children":[
				5
			],
			"extras":{
				"ant_landscape":{},
				"gltf_primitive_index":9
			},
			"mesh":6,
			"name":"door_right",
			"translation":[
				-0.14990311861038208,
				1.128414511680603,
				-0.3710540533065796
			]
		},
		{
			"extras":{
				"ant_landscape":{},
				"gltf_primitive_index":8
			},
			"mesh":7,
			"name":"door_window_left",
			"translation":[
				0.4599098861217499,
				-0.19971555471420288,
				0.28597989678382874
			]
		},
		{
			"children":[
				7
			],
			"extras":{
				"ant_landscape":{},
				"gltf_primitive_index":10,
				"gltf_primitive_extras":"{\"visibleEdges\": [[48, 49], [28, 30], [42, 43]]}"
			},
			"mesh":8,
			"name":"door_left",
			"translation":[
				0.21904930472373962,
				1.1284147500991821,
				-0.37105411291122437
			]
		},
		{
			"extras":{
				"ant_landscape":{},
				"gltf_primitive_index":1,
				"gltf_primitive_extras":"{\"visibleEdges\": [[1, 0], [3, 2], [1, 3], [2, 0]]}"
			},
			"mesh":9,
			"name":"window_front",
			"translation":[
				0.03457307815551758,
				0.9447721242904663,
				0.3618030250072479
			]
		},
		{
			"extras":{
				"ant_landscape":{},
				"tissue_tessellate":{
					"generator":{}
				},
				"tissue_to_curve":{
					"object":{}
				},
				"gltf_primitive_index":0
			},
			"mesh":10,
			"name":"windows_black",
			"translation":[
				0.03457307815551758,
				0.9298476576805115,
				-1.450289011001587
			]
		},
		{
			"children":[
				9,
				10
			],
			"extras":{
				"ant_landscape":{},
				"gltf_primitive_index":0,
				"gltf_primitive_extras":"{\"visibleEdges\": [[124, 127], [129, 126], [128, 125], [579, 582], [128, 583], [582, 127]]}"
			},
			"mesh":11,
			"name":"car_body"
		}
	],
	"animations":[
		{
			"channels":[
				{
					"sampler":0,
					"target":{
						"node":0,
						"path":"rotation"
					}
				},
				{
					"sampler":1,
					"target":{
						"node":1,
						"path":"rotation"
					}
				},
				{
					"sampler":2,
					"target":{
						"node":2,
						"path":"rotation"
					}
				},
				{
					"sampler":3,
					"target":{
						"node":3,
						"path":"rotation"
					}
				}
			],
			"name":"Animation",
			"samplers":[
				{
					"input":63,
					"interpolation":"LINEAR",
					"output":64
				},
				{
					"input":63,
					"interpolation":"LINEAR",
					"output":65
				},
				{
					"input":63,
					"interpolation":"LINEAR",
					"output":66
				},
				{
					"input":63,
					"interpolation":"LINEAR",
					"output":67
				}
			]
		}
	],
	"meshes":[
		{
			"name":"Circle.185",
			"primitives":[
				{
					"attributes":{
						"_VERT_INDEX":0,
						"POSITION":1,
						"NORMAL":2,
						"TEXCOORD_0":3
					},
					"indices":4
				}
			]
		},
		{
			"name":"Circle.186",
			"primitives":[
				{
					"attributes":{
						"_VERT_INDEX":5,
						"POSITION":6,
						"NORMAL":7,
						"TEXCOORD_0":8
					},
					"indices":9
				}
			]
		},
		{
			"name":"Circle.187",
			"primitives":[
				{
					"attributes":{
						"_VERT_INDEX":10,
						"POSITION":11,
						"NORMAL":12,
						"TEXCOORD_0":13
					},
					"indices":4
				}
			]
		},
		{
			"name":"Circle.188",
			"primitives":[
				{
					"attributes":{
						"_VERT_INDEX":14,
						"POSITION":15,
						"NORMAL":16,
						"TEXCOORD_0":17
					},
					"indices":9
				}
			]
		},
		{
			"name":"Torus.017",
			"primitives":[
				{
					"attributes":{
						"_VERT_INDEX":18,
						"POSITION":19,
						"NORMAL":20,
						"TEXCOORD_0":21,
						"TEXCOORD_1":22
					},
					"indices":23
				}
			]
		},
		{
			"name":"Cube.247",
			"primitives":[
				{
					"attributes":{
						"_VERT_INDEX":24,
						"POSITION":25,
						"NORMAL":26,
						"TEXCOORD_0":27
					},
					"indices":28
				}
			]
		},
		{
			"name":"Cube.249",
			"primitives":[
				{
					"attributes":{
						"_VERT_INDEX":29,
						"POSITION":30,
						"NORMAL":31,
						"TEXCOORD_0":32,
						"COLOR_0":33
					},
					"indices":34
				}
			]
		},
		{
			"name":"Cube.248",
			"primitives":[
				{
					"attributes":{
						"_VERT_INDEX":35,
						"POSITION":36,
						"NORMAL":37,
						"TEXCOORD_0":38
					},
					"indices":39
				}
			]
		},
		{
			"name":"Cube.250",
			"primitives":[
				{
					"attributes":{
						"_VERT_INDEX":40,
						"POSITION":41,
						"NORMAL":42,
						"TEXCOORD_0":43,
						"COLOR_0":44
					},
					"indices":45
				}
			]
		},
		{
			"name":"Cube.246",
			"primitives":[
				{
					"attributes":{
						"_VERT_INDEX":46,
						"POSITION":47,
						"NORMAL":48,
						"TEXCOORD_0":49
					},
					"indices":50
				}
			]
		},
		{
			"name":"Cube.201",
			"primitives":[
				{
					"attributes":{
						"_VERT_INDEX":51,
						"POSITION":52,
						"NORMAL":53,
						"TEXCOORD_0":54
					},
					"indices":55
				}
			]
		},
		{
			"name":"Cube.251",
			"primitives":[
				{
					"attributes":{
						"_VERT_INDEX":56,
						"_VERT_INDEX.001":57,
						"POSITION":58,
						"NORMAL":59,
						"TEXCOORD_0":60,
						"COLOR_0":61
					},
					"indices":62
				}
			]
		}
	],
	"accessors":[
		{
			"bufferView":0,
			"componentType":5126,
			"count":251,
			"type":"SCALAR"
		},
		{
			"bufferView":1,
			"componentType":5126,
			"count":251,
			"max":[
				0.10622435808181763,
				0.2953856885433197,
				0.2953856587409973
			],
			"min":[
				-0.10622435808181763,
				-0.2953856885433197,
				-0.2953856587409973
			],
			"type":"VEC3"
		},
		{
			"bufferView":2,
			"componentType":5126,
			"count":251,
			"type":"VEC3"
		},
		{
			"bufferView":3,
			"componentType":5126,
			"count":251,
			"type":"VEC2"
		},
		{
			"bufferView":4,
			"componentType":5123,
			"count":1020,
			"type":"SCALAR"
		},
		{
			"bufferView":5,
			"componentType":5126,
			"count":251,
			"type":"SCALAR"
		},
		{
			"bufferView":6,
			"componentType":5126,
			"count":251,
			"max":[
				0.10622435808181763,
				0.2953856587409973,
				0.2953856587409973
			],
			"min":[
				-0.10622435808181763,
				-0.2953856587409973,
				-0.2953856587409973
			],
			"type":"VEC3"
		},
		{
			"bufferView":7,
			"componentType":5126,
			"count":251,
			"type":"VEC3"
		},
		{
			"bufferView":8,
			"componentType":5126,
			"count":251,
			"type":"VEC2"
		},
		{
			"bufferView":9,
			"componentType":5123,
			"count":1020,
			"type":"SCALAR"
		},
		{
			"bufferView":10,
			"componentType":5126,
			"count":251,
			"type":"SCALAR"
		},
		{
			"bufferView":11,
			"componentType":5126,
			"count":251,
			"max":[
				0.1062244176864624,
				0.2953856885433197,
				0.2953856587409973
			],
			"min":[
				-0.10622429847717285,
				-0.2953856885433197,
				-0.2953856587409973
			],
			"type":"VEC3"
		},
		{
			"bufferView":12,
			"componentType":5126,
			"count":251,
			"type":"VEC3"
		},
		{
			"bufferView":13,
			"componentType":5126,
			"count":251,
			"type":"VEC2"
		},
		{
			"bufferView":14,
			"componentType":5126,
			"count":251,
			"type":"SCALAR"
		},
		{
			"bufferView":15,
			"componentType":5126,
			"count":251,
			"max":[
				0.10622435808181763,
				0.2953856587409973,
				0.2953856587409973
			],
			"min":[
				-0.10622435808181763,
				-0.2953856587409973,
				-0.2953856587409973
			],
			"type":"VEC3"
		},
		{
			"bufferView":16,
			"componentType":5126,
			"count":251,
			"type":"VEC3"
		},
		{
			"bufferView":17,
			"componentType":5126,
			"count":251,
			"type":"VEC2"
		},
		{
			"bufferView":18,
			"componentType":5126,
			"count":1333,
			"type":"SCALAR"
		},
		{
			"bufferView":19,
			"componentType":5126,
			"count":1333,
			"max":[
				0.28888413310050964,
				0.31188133358955383,
				1.1780861616134644
			],
			"min":[
				-1.0770280361175537,
				-0.4624020457267761,
				-0.23092232644557953
			],
			"type":"VEC3"
		},
		{
			"bufferView":20,
			"componentType":5126,
			"count":1333,
			"type":"VEC3"
		},
		{
			"bufferView":21,
			"componentType":5126,
			"count":1333,
			"type":"VEC2"
		},
		{
			"bufferView":22,
			"componentType":5126,
			"count":1333,
			"type":"VEC2"
		},
		{
			"bufferView":23,
			"componentType":5123,
			"count":2136,
			"type":"SCALAR"
		},
		{
			"bufferView":24,
			"componentType":5126,
			"count":5,
			"type":"SCALAR"
		},
		{
			"bufferView":25,
			"componentType":5126,
			"count":5,
			"max":[
				0.08283301442861557,
				0.1253143548965454,
				0.5520043969154358
			],
			"min":[
				-0.08283307403326035,
				-0.1253143548965454,
				-0.5520043969154358
			],
			"type":"VEC3"
		},
		{
			"bufferView":26,
			"componentType":5126,
			"count":5,
			"type":"VEC3"
		},
		{
			"bufferView":27,
			"componentType":5126,
			"count":5,
			"type":"VEC2"
		},
		{
			"bufferView":28,
			"componentType":5123,
			"count":9,
			"type":"SCALAR"
		},
		{
			"bufferView":29,
			"componentType":5126,
			"count":249,
			"type":"SCALAR"
		},
		{
			"bufferView":30,
			"componentType":5126,
			"count":249,
			"max":[
				1.429399344488047e-05,
				1.1920928955078125e-07,
				1.0433309078216553
			],
			"min":[
				-0.7180023789405823,
				-0.8481886386871338,
				-0.3596787452697754
			],
			"type":"VEC3"
		},
		{
			"bufferView":31,
			"componentType":5126,
			"count":249,
			"type":"VEC3"
		},
		{
			"bufferView":32,
			"componentType":5126,
			"count":249,
			"type":"VEC2"
		},
		{
			"bufferView":33,
			"componentType":5126,
			"count":249,
			"type":"VEC3"
		},
		{
			"bufferView":34,
			"componentType":5123,
			"count":426,
			"type":"SCALAR"
		},
		{
			"bufferView":35,
			"componentType":5126,
			"count":5,
			"type":"SCALAR"
		},
		{
			"bufferView":36,
			"componentType":5126,
			"count":5,
			"max":[
				0.08283307403326035,
				0.1253143697977066,
				0.5520043969154358
			],
			"min":[
				-0.08283307403326035,
				-0.1253143697977066,
				-0.5520043969154358
			],
			"type":"VEC3"
		},
		{
			"bufferView":37,
			"componentType":5126,
			"count":5,
			"type":"VEC3"
		},
		{
			"bufferView":38,
			"componentType":5126,
			"count":5,
			"type":"VEC2"
		},
		{
			"bufferView":39,
			"componentType":5123,
			"count":9,
			"type":"SCALAR"
		},
		{
			"bufferView":40,
			"componentType":5126,
			"count":249,
			"type":"SCALAR"
		},
		{
			"bufferView":41,
			"componentType":5126,
			"count":249,
			"max":[
				0.7180023789405823,
				-5.960464477539063e-08,
				1.0433311462402344
			],
			"min":[
				-1.429399344488047e-05,
				-0.8481888771057129,
				-0.359678715467453
			],
			"type":"VEC3"
		},
		{
			"bufferView":42,
			"componentType":5126,
			"count":249,
			"type":"VEC3"
		},
		{
			"bufferView":43,
			"componentType":5126,
			"count":249,
			"type":"VEC2"
		},
		{
			"bufferView":44,
			"componentType":5126,
			"count":249,
			"type":"VEC3"
		},
		{
			"bufferView":45,
			"componentType":5123,
			"count":426,
			"type":"SCALAR"
		},
		{
			"bufferView":46,
			"componentType":5126,
			"count":4,
			"type":"SCALAR"
		},
		{
			"bufferView":47,
			"componentType":5126,
			"count":4,
			"max":[
				0.6954387426376343,
				0.15404081344604492,
				0.33650508522987366
			],
			"min":[
				-0.6954387426376343,
				-0.15404075384140015,
				-0.33650505542755127
			],
			"type":"VEC3"
		},
		{
			"bufferView":48,
			"componentType":5126,
			"count":4,
			"type":"VEC3"
		},
		{
			"bufferView":49,
			"componentType":5126,
			"count":4,
			"type":"VEC2"
		},
		{
			"bufferView":50,
			"componentType":5123,
			"count":6,
			"type":"SCALAR"
		},
		{
			"bufferView":51,
			"componentType":5126,
			"count":12,
			"type":"SCALAR"
		},
		{
			"bufferView":52,
			"componentType":5126,
			"count":12,
			"max":[
				0.7165327668190002,
				0.13193917274475098,
				0.5135270357131958
			],
			"min":[
				-0.7165327668190002,
				-0.13193917274475098,
				-0.5135269165039062
			],
			"type":"VEC3"
		},
		{
			"bufferView":53,
			"componentType":5126,
			"count":12,
			"type":"VEC3"
		},
		{
			"bufferView":54,
			"componentType":5126,
			"count":12,
			"type":"VEC2"
		},
		{
			"bufferView":55,
			"componentType":5123,
			"count":18,
			"type":"SCALAR"
		},
		{
			"bufferView":56,
			"componentType":5126,
			"count":2975,
			"type":"SCALAR"
		},
		{
			"bufferView":57,
			"componentType":5126,
			"count":2975,
			"type":"SCALAR"
		},
		{
			"bufferView":58,
			"componentType":5126,
			"count":2975,
			"max":[
				0.8495120406150818,
				1.1284147500991821,
				2.1086137294769287
			],
			"min":[
				-0.7803658843040466,
				0.16083066165447235,
				-2.110600471496582
			],
			"type":"VEC3"
		},
		{
			"bufferView":59,
			"componentType":5126,
			"count":2975,
			"type":"VEC3"
		},
		{
			"bufferView":60,
			"componentType":5126,
			"count":2975,
			"type":"VEC2"
		},
		{
			"bufferView":61,
			"componentType":5126,
			"count":2975,
			"type":"VEC3"
		},
		{
			"bufferView":62,
			"componentType":5123,
			"count":4872,
			"type":"SCALAR"
		},
		{
			"bufferView":63,
			"componentType":5126,
			"count":16,
			"max":[
				0.625
			],
			"min":[
				0
			],
			"type":"SCALAR"
		},
		{
			"bufferView":64,
			"componentType":5126,
			"count":16,
			"type":"VEC4"
		},
		{
			"bufferView":65,
			"componentType":5126,
			"count":16,
			"type":"VEC4"
		},
		{
			"bufferView":66,
			"componentType":5126,
			"count":16,
			"type":"VEC4"
		},
		{
			"bufferView":67,
			"componentType":5126,
			"count":16,
			"type":"VEC4"
		}
	],
	"bufferViews":[
		{
			"buffer":0,
			"byteLength":1004,
			"byteOffset":0,
			"target":34962
		},
		{
			"buffer":0,
			"byteLength":3012,
			"byteOffset":1004,
			"target":34962
		},
		{
			"buffer":0,
			"byteLength":3012,
			"byteOffset":4016,
			"target":34962
		},
		{
			"buffer":0,
			"byteLength":2008,
			"byteOffset":7028,
			"target":34962
		},
		{
			"buffer":0,
			"byteLength":2040,
			"byteOffset":9036,
			"target":34963
		},
		{
			"buffer":0,
			"byteLength":1004,
			"byteOffset":11076,
			"target":34962
		},
		{
			"buffer":0,
			"byteLength":3012,
			"byteOffset":12080,
			"target":34962
		},
		{
			"buffer":0,
			"byteLength":3012,
			"byteOffset":15092,
			"target":34962
		},
		{
			"buffer":0,
			"byteLength":2008,
			"byteOffset":18104,
			"target":34962
		},
		{
			"buffer":0,
			"byteLength":2040,
			"byteOffset":20112,
			"target":34963
		},
		{
			"buffer":0,
			"byteLength":1004,
			"byteOffset":22152,
			"target":34962
		},
		{
			"buffer":0,
			"byteLength":3012,
			"byteOffset":23156,
			"target":34962
		},
		{
			"buffer":0,
			"byteLength":3012,
			"byteOffset":26168,
			"target":34962
		},
		{
			"buffer":0,
			"byteLength":2008,
			"byteOffset":29180,
			"target":34962
		},
		{
			"buffer":0,
			"byteLength":1004,
			"byteOffset":31188,
			"target":34962
		},
		{
			"buffer":0,
			"byteLength":3012,
			"byteOffset":32192,
			"target":34962
		},
		{
			"buffer":0,
			"byteLength":3012,
			"byteOffset":35204,
			"target":34962
		},
		{
			"buffer":0,
			"byteLength":2008,
			"byteOffset":38216,
			"target":34962
		},
		{
			"buffer":0,
			"byteLength":5332,
			"byteOffset":40224,
			"target":34962
		},
		{
			"buffer":0,
			"byteLength":15996,
			"byteOffset":45556,
			"target":34962
		},
		{
			"buffer":0,
			"byteLength":15996,
			"byteOffset":61552,
			"target":34962
		},
		{
			"buffer":0,
			"byteLength":10664,
			"byteOffset":77548,
			"target":34962
		},
		{
			"buffer":0,
			"byteLength":10664,
			"byteOffset":88212,
			"target":34962
		},
		{
			"buffer":0,
			"byteLength":4272,
			"byteOffset":98876,
			"target":34963
		},
		{
			"buffer":0,
			"byteLength":20,
			"byteOffset":103148,
			"target":34962
		},
		{
			"buffer":0,
			"byteLength":60,
			"byteOffset":103168,
			"target":34962
		},
		{
			"buffer":0,
			"byteLength":60,
			"byteOffset":103228,
			"target":34962
		},
		{
			"buffer":0,
			"byteLength":40,
			"byteOffset":103288,
			"target":34962
		},
		{
			"buffer":0,
			"byteLength":18,
			"byteOffset":103328,
			"target":34963
		},
		{
			"buffer":0,
			"byteLength":996,
			"byteOffset":103348,
			"target":34962
		},
		{
			"buffer":0,
			"byteLength":2988,
			"byteOffset":104344,
			"target":34962
		},
		{
			"buffer":0,
			"byteLength":2988,
			"byteOffset":107332,
			"target":34962
		},
		{
			"buffer":0,
			"byteLength":1992,
			"byteOffset":110320,
			"target":34962
		},
		{
			"buffer":0,
			"byteLength":2988,
			"byteOffset":112312,
			"target":34962
		},
		{
			"buffer":0,
			"byteLength":852,
			"byteOffset":115300,
			"target":34963
		},
		{
			"buffer":0,
			"byteLength":20,
			"byteOffset":116152,
			"target":34962
		},
		{
			"buffer":0,
			"byteLength":60,
			"byteOffset":116172,
			"target":34962
		},
		{
			"buffer":0,
			"byteLength":60,
			"byteOffset":116232,
			"target":34962
		},
		{
			"buffer":0,
			"byteLength":40,
			"byteOffset":116292,
			"target":34962
		},
		{
			"buffer":0,
			"byteLength":18,
			"byteOffset":116332,
			"target":34963
		},
		{
			"buffer":0,
			"byteLength":996,
			"byteOffset":116352,
			"target":34962
		},
		{
			"buffer":0,
			"byteLength":2988,
			"byteOffset":117348,
			"target":34962
		},
		{
			"buffer":0,
			"byteLength":2988,
			"byteOffset":120336,
			"target":34962
		},
		{
			"buffer":0,
			"byteLength":1992,
			"byteOffset":123324,
			"target":34962
		},
		{
			"buffer":0,
			"byteLength":2988,
			"byteOffset":125316,
			"target":34962
		},
		{
			"buffer":0,
			"byteLength":852,
			"byteOffset":128304,
			"target":34963
		},
		{
			"buffer":0,
			"byteLength":16,
			"byteOffset":129156,
			"target":34962
		},
		{
			"buffer":0,
			"byteLength":48,
			"byteOffset":129172,
			"target":34962
		},
		{
			"buffer":0,
			"byteLength":48,
			"byteOffset":129220,
			"target":34962
		},
		{
			"buffer":0,
			"byteLength":32,
			"byteOffset":129268,
			"target":34962
		},
		{
			"buffer":0,
			"byteLength":12,
			"byteOffset":129300,
			"target":34963
		},
		{
			"buffer":0,
			"byteLength":48,
			"byteOffset":129312,
			"target":34962
		},
		{
			"buffer":0,
			"byteLength":144,
			"byteOffset":129360,
			"target":34962
		},
		{
			"buffer":0,
			"byteLength":144,
			"byteOffset":129504,
			"target":34962
		},
		{
			"buffer":0,
			"byteLength":96,
			"byteOffset":129648,
			"target":34962
		},
		{
			"buffer":0,
			"byteLength":36,
			"byteOffset":129744,
			"target":34963
		},
		{
			"buffer":0,
			"byteLength":11900,
			"byteOffset":129780,
			"target":34962
		},
		{
			"buffer":0,
			"byteLength":11900,
			"byteOffset":141680,
			"target":34962
		},
		{
			"buffer":0,
			"byteLength":35700,
			"byteOffset":153580,
			"target":34962
		},
		{
			"buffer":0,
			"byteLength":35700,
			"byteOffset":189280,
			"target":34962
		},
		{
			"buffer":0,
			"byteLength":23800,
			"byteOffset":224980,
			"target":34962
		},
		{
			"buffer":0,
			"byteLength":35700,
			"byteOffset":248780,
			"target":34962
		},
		{
			"buffer":0,
			"byteLength":9744,
			"byteOffset":284480,
			"target":34963
		},
		{
			"buffer":0,
			"byteLength":64,
			"byteOffset":294224
		},
		{
			"buffer":0,
			"byteLength":256,
			"byteOffset":294288
		},
		{
			"buffer":0,
			"byteLength":256,
			"byteOffset":294544
		},
		{
			"buffer":0,
			"byteLength":256,
			"byteOffset":294800
		},
		{
			"buffer":0,
			"byteLength":256,
			"byteOffset":295056
		}
	],
	"buffers":[
		{
			"byteLength":295312,
			"uri":"coupe2.bin"
		}
	]
}
