{
	"asset":{
		"generator":"Khronos glTF Blender I/O v4.1.63",
		"version":"2.0"
	},
	"scene":0,
	"scenes":[
		{
			"name":"Scene",
			"nodes":[
				0
			]
		}
	],
	"nodes":[
		{
			"extras":{
				"gltf_primitive_index":0,
				"gltf_primitive_extras":"{\"visibleEdges\": [[14, 2], [18, 3], [20, 4], [21, 5], [23, 10], [24, 2], [25, 6], [26, 3], [28, 4], [29, 8], [30, 5], [31, 9], [32, 6], [34, 8], [35, 9], [36, 10], [37, 6], [2, 12], [5, 15], [3, 17], [2, 18], [3, 20], [4, 21], [10, 22], [5, 23], [6, 24], [2, 27], [8, 28], [3, 29], [9, 30], [4, 31], [10, 32], [6, 33], [8, 35], [9, 36], [10, 38], [38, 36], [37, 33], [37, 38], [37, 32], [38, 32], [23, 36], [23, 30], [36, 30], [31, 35], [31, 28], [35, 28], [29, 34], [29, 26], [34, 26], [27, 33], [27, 24], [33, 24], [25, 32], [25, 22], [32, 22], [30, 31], [30, 21], [31, 21], [28, 20], [29, 20], [26, 27], [26, 18], [27, 18], [24, 14], [25, 14], [22, 23], [22, 15], [23, 15], [20, 17], [17, 18], [17, 12], [18, 12], [12, 14]]}"
			},
			"mesh":0,
			"name":"Icosphere"
		}
	],
	"meshes":[
		{
			"name":"Icosphere",
			"primitives":[
				{
					"attributes":{
						"_VERT_INDEX":0,
						"POSITION":1,
						"NORMAL":2,
						"TEXCOORD_0":3,
						"COLOR_0":4
					},
					"indices":5
				}
			]
		}
	],
	"accessors":[
		{
			"bufferView":0,
			"componentType":5126,
			"count":240,
			"type":"SCALAR"
		},
		{
			"bufferView":1,
			"componentType":5126,
			"count":240,
			"max":[
				0.9510578513145447,
				1,
				0.9999999403953552
			],
			"min":[
				-0.9510578513145447,
				-1,
				-0.9999999403953552
			],
			"type":"VEC3"
		},
		{
			"bufferView":2,
			"componentType":5126,
			"count":240,
			"type":"VEC3"
		},
		{
			"bufferView":3,
			"componentType":5126,
			"count":240,
			"type":"VEC2"
		},
		{
			"bufferView":4,
			"componentType":5126,
			"count":240,
			"type":"VEC3"
		},
		{
			"bufferView":5,
			"componentType":5123,
			"count":240,
			"type":"SCALAR"
		}
	],
	"bufferViews":[
		{
			"buffer":0,
			"byteLength":960,
			"byteOffset":0,
			"target":34962
		},
		{
			"buffer":0,
			"byteLength":2880,
			"byteOffset":960,
			"target":34962
		},
		{
			"buffer":0,
			"byteLength":2880,
			"byteOffset":3840,
			"target":34962
		},
		{
			"buffer":0,
			"byteLength":1920,
			"byteOffset":6720,
			"target":34962
		},
		{
			"buffer":0,
			"byteLength":2880,
			"byteOffset":8640,
			"target":34962
		},
		{
			"buffer":0,
			"byteLength":480,
			"byteOffset":11520,
			"target":34963
		}
	],
	"buffers":[
		{
			"byteLength":12000,
			"uri":"sphere.bin"
		}
	]
}
